<?xml version="1.0" standalone="no"?>
<!DOCTYPE svg PUBLIC "-//W3C//DTD SVG 20010904//EN"
 "http://www.w3.org/TR/2001/REC-SVG-20010904/DTD/svg10.dtd">
<svg version="1.0" xmlns="http://www.w3.org/2000/svg"
 width="310.000000pt" height="310.000000pt" viewBox="0 0 310.000000 310.000000"
 preserveAspectRatio="xMidYMid meet">
<metadata>
Created by potrace 1.11, written by Peter Selinger 2001-2013
</metadata>
<g transform="translate(0.000000,310.000000) scale(0.100000,-0.100000)"
fill="#000000" stroke="none">
<path d="M1230 3091 c0 -4 -20 -6 -45 -5 -25 1 -48 -2 -51 -7 -3 -5 -10 -9
-15 -9 -6 0 -7 6 -3 13 6 9 4 9 -7 2 -8 -6 -27 -12 -44 -14 -16 -2 -33 -8 -37
-15 -6 -8 -8 -7 -8 2 0 7 -5 10 -12 6 -12 -8 -53 -15 -80 -15 -10 0 -18 -4
-18 -9 0 -5 -9 -7 -20 -5 -11 2 -20 0 -20 -5 0 -4 -11 -7 -25 -6 -14 2 -30 -3
-36 -10 -5 -7 -19 -11 -31 -9 -14 3 -18 0 -14 -11 4 -11 2 -12 -13 -4 -14 7
-20 6 -25 -5 -3 -8 -9 -15 -13 -14 -23 4 -43 -2 -38 -11 3 -6 -1 -7 -9 -4 -9
3 -16 1 -16 -6 0 -6 -3 -9 -7 -7 -13 7 -55 -12 -49 -22 3 -5 -3 -7 -14 -4 -12
3 -22 -1 -26 -11 -3 -9 -10 -13 -15 -10 -5 3 -9 0 -9 -5 0 -6 -7 -11 -15 -11
-9 0 -18 -7 -21 -15 -4 -8 -10 -12 -15 -9 -5 3 -9 0 -9 -5 0 -6 -7 -11 -15
-11 -8 0 -15 -5 -15 -12 0 -6 -3 -9 -6 -5 -3 3 -13 -2 -23 -11 -10 -10 -32
-30 -50 -45 -17 -15 -29 -32 -26 -37 4 -6 -2 -7 -12 -3 -10 3 -15 3 -11 -1 3
-4 -1 -16 -10 -27 -9 -10 -24 -27 -33 -37 -8 -10 -13 -25 -11 -33 3 -8 1 -11
-3 -6 -10 8 -46 -43 -39 -55 3 -4 0 -8 -5 -8 -6 0 -11 -7 -11 -15 0 -8 -5 -15
-11 -15 -5 0 -7 -4 -4 -10 3 -5 1 -10 -4 -10 -6 0 -11 -9 -11 -20 0 -11 -4
-20 -9 -20 -9 0 -26 -48 -23 -62 1 -5 -3 -8 -9 -8 -5 0 -7 -5 -3 -11 3 -6 3
-14 -2 -18 -5 -3 -15 -17 -22 -30 -11 -19 -11 -22 0 -15 10 6 11 5 1 -8 -7 -8
-10 -18 -6 -21 3 -4 1 -7 -6 -7 -7 0 -11 -7 -8 -15 4 -8 2 -17 -4 -21 -6 -3
-8 -12 -5 -20 3 -8 1 -14 -4 -14 -5 0 -7 -9 -5 -19 2 -11 -3 -22 -12 -25 -12
-5 -13 -9 -3 -21 8 -10 9 -15 2 -15 -6 0 -9 -7 -6 -15 3 -8 2 -20 -2 -27 -9
-13 -10 -23 -13 -74 0 -14 -5 -22 -11 -19 -5 3 -10 2 -10 -4 0 -5 5 -11 11
-13 9 -3 9 -9 1 -25 -6 -11 -9 -32 -6 -47 3 -17 0 -26 -8 -26 -9 0 -8 -3 2
-10 11 -7 11 -10 2 -10 -10 0 -10 -5 -1 -21 6 -13 7 -19 1 -15 -11 7 -15 -541
-4 -559 10 -16 9 -45 -1 -45 -6 0 -6 -5 -1 -12 5 -7 9 -25 8 -40 0 -16 2 -28
6 -28 4 0 7 -7 7 -15 0 -8 -5 -15 -11 -15 -6 0 -5 -4 2 -9 8 -5 15 -29 15 -60
1 -28 5 -51 9 -51 4 0 7 -9 7 -20 1 -11 1 -29 2 -40 0 -11 4 -22 10 -25 5 -4
9 -17 9 -30 0 -13 6 -26 13 -28 9 -4 9 -6 0 -6 -7 -1 -10 -8 -7 -16 4 -8 10
-13 14 -10 5 3 6 -4 3 -15 -3 -11 -1 -20 3 -20 5 0 10 -12 11 -26 0 -15 6 -30
13 -34 6 -4 11 -10 11 -14 -3 -23 0 -36 8 -31 6 3 8 -4 6 -15 -2 -11 1 -20 6
-20 6 0 7 -4 4 -10 -3 -5 -1 -10 5 -10 6 0 9 -4 5 -9 -3 -6 1 -13 9 -18 15 -8
16 -11 16 -39 0 -8 4 -12 10 -9 5 3 10 -3 10 -14 0 -12 5 -21 10 -21 6 0 10
-4 10 -9 0 -18 45 -80 58 -81 6 0 11 -3 10 -8 -4 -12 34 -62 43 -56 5 3 9 -2
9 -10 0 -9 3 -16 8 -16 4 0 18 -10 32 -22 14 -13 37 -29 52 -37 15 -8 25 -18
22 -23 -3 -4 4 -8 15 -8 12 0 21 -4 21 -10 0 -5 7 -10 15 -10 8 0 15 -3 15 -8
0 -4 9 -13 21 -20 12 -8 18 -9 15 -3 -4 7 -1 8 8 5 9 -3 13 -10 10 -15 -3 -5
2 -6 10 -3 9 3 16 2 16 -3 0 -4 9 -14 21 -21 17 -11 20 -11 13 0 -4 8 0 7 12
-3 32 -26 48 -34 39 -18 -5 8 4 3 20 -11 16 -14 25 -19 21 -13 -4 7 -2 13 3
13 6 0 11 -5 11 -11 0 -5 5 -7 10 -4 6 3 10 2 10 -3 0 -5 7 -9 15 -10 8 -1 22
-3 30 -4 8 -1 15 -5 15 -10 0 -4 5 -8 11 -8 5 0 7 6 3 13 -6 9 -4 9 8 -1 17
-14 52 -24 81 -24 9 1 17 -3 17 -7 0 -8 8 -9 65 -12 19 0 38 -5 41 -10 3 -5
10 -7 15 -3 5 3 16 0 24 -6 12 -10 15 -10 15 0 0 8 4 9 13 3 6 -5 22 -8 35 -7
12 0 22 -3 22 -9 0 -5 6 -4 14 2 10 8 16 9 21 1 4 -7 12 -7 25 0 10 6 21 6 24
1 3 -4 35 -8 71 -7 39 1 65 -2 65 -9 0 -6 3 -6 8 1 4 6 23 9 42 7 44 -4 44 -4
108 0 29 2 56 -1 58 -5 3 -5 10 -5 16 -2 6 4 54 8 107 8 53 1 101 5 108 9 6 4
14 3 18 -3 4 -7 12 -7 26 0 14 8 19 7 19 -2 0 -9 3 -10 8 -2 4 6 20 10 35 10
16 -1 31 2 33 6 3 4 11 5 19 1 9 -3 15 1 15 8 0 12 2 12 9 0 6 -9 11 -10 15
-3 4 6 13 9 21 5 8 -3 15 0 15 6 0 8 5 9 19 1 14 -7 22 -7 27 2 5 7 3 8 -6 3
-9 -5 -11 -4 -6 4 6 9 11 9 21 1 9 -8 15 -8 20 0 3 6 10 8 15 5 5 -3 11 -1 15
5 9 15 27 12 20 -2 -4 -7 -1 -6 7 3 7 9 19 14 27 11 8 -3 11 0 7 6 -4 7 2 9
18 6 14 -2 28 0 31 6 4 6 11 8 16 5 5 -4 9 -1 9 5 0 6 4 9 9 6 5 -3 22 1 40
10 17 8 39 16 50 17 11 0 17 5 15 9 -5 7 19 13 39 9 5 -1 6 3 2 9 -3 5 1 10 9
10 9 0 16 4 16 10 0 5 7 7 15 4 8 -4 17 1 21 9 3 9 14 14 25 12 11 -2 25 5 33
17 9 12 19 17 27 13 8 -6 10 -4 5 4 -5 8 0 14 13 18 12 3 21 12 21 20 0 8 4
12 9 8 5 -3 35 20 66 50 32 30 54 55 50 55 -5 0 2 9 15 20 13 11 19 20 15 20
-4 0 2 9 14 19 13 11 20 25 16 30 -3 6 1 11 10 11 9 0 14 4 11 8 -3 5 3 18 14
29 10 12 16 23 13 27 -3 3 2 8 11 12 9 3 13 10 10 15 -3 6 0 16 6 24 7 8 9 15
4 15 -4 0 1 6 11 14 11 8 16 20 12 29 -3 9 -2 19 3 22 14 9 40 67 34 76 -3 5
-1 9 5 9 6 0 8 7 5 15 -4 8 -1 15 6 15 7 0 10 7 7 15 -4 8 -2 17 4 20 5 4 7
10 4 15 -3 5 -1 11 4 15 6 3 8 12 5 19 -3 7 2 16 12 20 11 4 13 10 7 19 -10
14 -9 35 2 61 5 10 9 28 9 40 1 12 5 26 8 31 4 6 5 23 4 38 -2 15 0 29 4 32 3
2 6 20 5 40 0 19 2 35 5 35 3 0 5 31 5 70 -1 43 2 67 8 63 6 -4 7 -1 2 8 -13
20 -14 100 -2 92 6 -4 7 -1 2 7 -11 17 -12 230 -2 237 4 3 4 10 -1 16 -4 7 -8
47 -7 89 0 42 -3 75 -6 72 -4 -2 -5 9 -3 25 3 16 1 32 -3 34 -5 3 -8 28 -7 56
0 28 -3 51 -7 51 -5 0 -8 16 -7 35 1 19 -5 42 -13 51 -12 16 -12 17 1 9 12 -7
13 -6 5 6 -6 8 -12 28 -14 44 -2 17 -6 32 -10 35 -3 3 -7 16 -9 30 -1 14 -3
31 -4 38 -1 6 -8 12 -17 12 -14 0 -14 2 -1 10 13 9 13 10 0 10 -12 0 -12 2 -2
9 11 7 11 9 -2 14 -9 4 -13 13 -10 22 3 8 1 15 -5 15 -6 0 -8 7 -5 15 4 8 1
15 -5 15 -6 0 -11 9 -11 20 0 11 -5 20 -12 20 -6 0 -8 3 -5 6 3 4 1 16 -5 28
-7 11 -11 24 -10 29 1 4 -3 7 -9 7 -6 0 -8 7 -5 16 3 8 2 12 -4 9 -6 -3 -10 0
-10 9 0 8 -4 16 -10 18 -5 2 -11 13 -13 25 -2 12 -7 26 -12 30 -4 5 -4 1 0 -7
8 -13 6 -13 -8 -1 -9 7 -14 17 -11 22 3 5 -2 12 -10 15 -9 3 -13 10 -11 15 3
4 -3 14 -15 21 -11 7 -20 18 -20 25 0 7 -8 13 -17 13 -15 0 -16 2 -3 10 11 7
11 10 2 10 -7 0 -23 11 -36 25 -13 14 -29 25 -35 25 -7 0 -9 5 -6 10 3 6 0 10
-9 10 -8 0 -16 4 -18 9 -1 5 -10 11 -18 13 -8 2 -21 11 -28 21 -7 9 -20 17
-28 17 -8 0 -14 4 -14 9 0 5 -11 12 -25 15 -16 4 -23 11 -19 18 4 6 3 8 -4 4
-10 -6 -68 21 -101 48 -12 9 -13 8 -7 -2 7 -11 4 -12 -12 -3 -12 6 -24 16 -27
21 -3 6 -16 10 -29 10 -12 0 -28 6 -35 13 -10 8 -12 8 -7 0 4 -7 -4 -6 -24 3
-16 8 -39 16 -50 17 -11 1 -20 5 -20 9 0 4 -9 5 -20 3 -11 -2 -20 0 -20 6 0 5
-3 8 -7 8 -31 -5 -73 3 -67 12 4 7 -1 7 -16 -1 -15 -8 -20 -8 -16 -1 7 10 -6
13 -81 14 -13 1 -23 5 -23 10 0 5 -7 4 -15 -3 -8 -7 -15 -8 -15 -3 0 5 -21 10
-47 10 -27 1 -49 2 -50 3 -9 7 -29 4 -35 -5 -5 -6 -8 -5 -8 3 0 11 -55 13
-280 11 -154 -1 -280 -5 -280 -8z m1360 -2855 c0 -3 -4 -8 -10 -11 -5 -3 -10
-1 -10 4 0 6 5 11 10 11 6 0 10 -2 10 -4z"/>
</g>
</svg>
