<svg xmlns="http://www.w3.org/2000/svg" viewBox="0 0 67 67"><path d="M38.7 20.9c-2.9 1.1-4.8 3.8-4.6 6.8l.1 1.2-1.2-.2c-4.3-.5-8-2.4-11.1-5.5l-1.5-1.5-.4 1.1c-.8 2.5-.3 5.2 1.5 7 .9 1 .7 1.1-.9.5-.6-.2-1.1-.3-1.1-.3-.2.2.4 2.3.8 3.2.6 1.2 1.8 2.3 3.2 3l1.1.5h-1.4c-1.3 0-1.4 0-1.2.5.5 1.5 2.3 3.2 4.4 3.9l1.5.5-1.3.8c-1.9 1.1-4.1 1.7-6.3 1.7-1.1 0-1.9.1-1.9.2 0 .2 2.9 1.6 4.5 2.1 5 1.5 10.9.9 15.3-1.8 3.2-1.9 6.3-5.6 7.8-9.2.8-1.9 1.6-5.4 1.6-7.1 0-1.1.1-1.2 1.4-2.5.8-.8 1.5-1.6 1.6-1.8.2-.5.2-.5-1 0-2 .7-2.3.6-1.3-.4.7-.8 1.6-2.1 1.6-2.5 0-.1-.4 0-.7.3-.4.2-1.4.6-2.1.8l-1.3.4-1.1-.8c-.6-.4-1.5-.9-2-1-1.1-.3-3-.3-4 .1zM34 67.5C15.5 67.5.5 52.5.5 34S15.5.5 34 .5s33.5 15 33.5 33.5-15 33.5-33.5 33.5z" fill-rule="evenodd" clip-rule="evenodd" fill="#a4a4a4"/></svg>