<svg xmlns="http://www.w3.org/2000/svg" x="0" y="0" version="1.1" viewBox="0 0 300 47.6" xml:space="preserve" focusable="false">
  <style>
    .st0{fill:#ccc}
  </style>
  <path d="M247.1 2.4l.6 33.4h-.2l-9.8-33.4h-15.8v42.1h10.5l-.6-34.6h.2l10.5 34.6h15.2V2.4h-10.6zm-200.5 0L38.7 45h11.5L56 6.3h.2L62 44.9h11.4L65.5 2.4H46.6zm64.3 0L105.6 35h-.2l-5.2-32.6H82.8L81.9 45h10.7l.3-38.3h.2l7.1 38.3H111l7.1-38.3h.2l.3 38.3h10.7l-.9-42.6h-17.5z" class="st0"/>
  <path d="M515.9 739.2c.1-.3.1-.7 0-.9-.1-.4-.4-.8-1.2-.8-.8 0-1.2.4-1.2 1.1v1.2h-3.3v-.9c0-2.7 2.1-3.5 4.4-3.5 2.2 0 4 .8 4.3 2.8.1 1 0 1.7 0 2-.5 2.5-5.1 3.3-5.5 4.7-.1.2 0 .5 0 .6.1.4.3.8 1.1.8.7 0 1.1-.4 1.1-1.1v-.8h3v.9c0 2.6-2.4 3.1-4.1 3.1-2.2 0-3.9-.7-4.2-2.7-.1-.5-.1-1 0-1.6.6-2.6 5-3.3 5.6-4.9m39.5.1c.1-.3.1-.7 0-.9-.1-.4-.4-.8-1.2-.8-.8 0-1.2.4-1.2 1.1v1.2h-3.2v-.9c0-2.7 2.1-3.5 4.4-3.5 2.2 0 4 .7 4.3 2.8.1 1 0 1.7 0 2-.5 2.5-5.1 3.3-5.4 4.7-.1.2 0 .5 0 .6.1.4.3.8 1.1.8.7 0 1.1-.4 1.1-1.1v-.7h3v.8c0 2.6-2.4 3-4.1 3-2.1 0-3.9-.7-4.2-2.7-.1-.5-.1-1 0-1.6.5-2.6 4.8-3.3 5.4-4.8m10.2-1.7c.8 0 1.1.6 1.2.9v9.5h3.1v-9.5c-.2-2.3-2-3-4.2-3s-4 .7-4.2 3v9.5h3.1v-9.5c-.1-.3.2-.9 1-.9m25.3.2c.9 0 1.2.6 1.2.9v2.3H591v1.8h4.3v-4.1c-.2-2.2-2.1-3-4.3-3-2.2 0-4.1.8-4.3 3v5.9c0 .2 0 .6.1.8.3 2.3 2.1 3 4.3 3 2.2 0 4-.7 4.3-3v-1.2h-3.1v1.2c-.1.3-.3.9-1.2.9-.9 0-1.1-.6-1.2-.9v-6.7c-.1-.4.2-.9 1-.9" class="st0" transform="matrix(3.5043 0 0 -3.5043 -1787.024 2623.432)"/>
</svg>
