<svg xmlns="http://www.w3.org/2000/svg" xmlns:xlink="http://www.w3.org/1999/xlink" width="212" height="64" viewBox="0 0 212 64" focusable="false">
  <defs>
    <path id="a" d="M0 .112h49.889V50H0z"/>
    <path id="c" d="M13.754 4.92c0 2.211 1.781 4.101 3.894 4.527v3.295c-2.067.303-3.992 1.535-4.895 3.317L9.6 15.047a4.5 4.5 0 0 0-.477-2.592 4.591 4.591 0 0 0-2.698-2.276 4.692 4.692 0 0 0-1.432-.225 4.62 4.62 0 0 0-4.408 3.163c-.79 2.4.545 4.988 2.975 5.768.466.149.949.225 1.435.225a4.628 4.628 0 0 0 4.028-2.323L12.18 17.8a6.158 6.158 0 0 0-.094 1.03c0 3.433 2.828 6.226 6.304 6.226 3.476 0 6.303-2.793 6.303-6.225 0-3.12-2.153-5.643-5.19-6.088V9.447c2.113-.426 3.522-2.316 3.522-4.526 0-2.524-2.08-4.577-4.635-4.577-2.556 0-4.635 2.053-4.635 4.577zm1.854 0c0-1.514 1.248-2.746 2.781-2.746 1.533 0 2.78 1.232 2.78 2.747 0 1.514-1.247 2.746-2.78 2.746-1.533 0-2.78-1.232-2.78-2.746zM4.133 17.144c-1.458-.468-2.259-2.02-1.784-3.46a2.77 2.77 0 0 1 2.644-1.898c.29 0 .58.045.86.135a2.76 2.76 0 0 1 1.618 1.365 2.7 2.7 0 0 1 .167 2.095 2.77 2.77 0 0 1-2.643 1.899 2.81 2.81 0 0 1-.862-.136zM14.31 18.83c0-2.22 1.83-4.028 4.08-4.028 2.248 0 4.078 1.807 4.078 4.028 0 2.22-1.83 4.028-4.079 4.028-2.249 0-4.079-1.807-4.079-4.028zm16.042-8.651c-2.129.683-3.416 2.753-3.174 4.869l-1.299.417.573 1.74 1.302-.417a4.63 4.63 0 0 0 4.03 2.322c.485 0 .968-.076 1.432-.225a4.587 4.587 0 0 0 2.698-2.276c.562-1.09.66-2.329.28-3.491a4.619 4.619 0 0 0-4.408-3.164 4.67 4.67 0 0 0-1.434.225zM29.14 15.38c-.474-1.44.327-2.993 1.785-3.461.28-.09.57-.135.861-.135 1.207 0 2.27.763 2.644 1.898.229.697.17 1.441-.168 2.095a2.75 2.75 0 0 1-1.619 1.365c-.28.09-.57.136-.86.136a2.77 2.77 0 0 1-2.643-1.898zM12.028 25.918a4.67 4.67 0 0 0-5.668 1.474 4.545 4.545 0 0 0 1.025 6.393 4.672 4.672 0 0 0 6.474-1.012 4.542 4.542 0 0 0-.33-5.781l.803-1.091-1.5-1.076-.804 1.093zm-3.553 6.386a2.727 2.727 0 0 1-.615-3.836 2.803 2.803 0 0 1 3.884-.607c1.24.89 1.517 2.61.616 3.836a2.804 2.804 0 0 1-3.885.607zm13.97-6.403l.803 1.092a4.54 4.54 0 0 0-.33 5.78 4.67 4.67 0 0 0 6.474 1.013 4.546 4.546 0 0 0 1.025-6.394 4.67 4.67 0 0 0-5.668-1.474l-.804-1.093-1.5 1.076zm1.973 5.796a2.728 2.728 0 0 1 .615-3.836 2.803 2.803 0 0 1 3.885.607 2.728 2.728 0 0 1-.615 3.837 2.802 2.802 0 0 1-3.885-.608z"/>
    <linearGradient id="d" x1="82.791%" x2="16.215%" y1="18.593%" y2="94.378%">
      <stop offset="0%" stop-color="#2ABCC3"/>
      <stop offset="100%" stop-color="#4269B1"/>
    </linearGradient>
  </defs>
  <g fill="none" fill-rule="evenodd">
    <g transform="translate(0 8)">
      <mask id="b" fill="#fff">
        <use xlink:href="#a"/>
      </mask>
      <path fill="#FAFAFA" d="M44.29 5.71C39.133 1.136 32.31.112 25.946.112h-2.02C17.333.112 10.464 1.228 5.6 5.71 1.041 10.866 0 17.705 0 24.07v1.958c0 6.579 1.117 13.509 5.6 18.374C10.786 48.99 17.655 50 24.05 50h1.775c6.609 0 13.57-1.101 18.465-5.6 4.59-5.185 5.6-12.07 5.6-18.465v-1.774c0-6.61-1.102-13.57-5.6-18.45" mask="url(#b)"/>
    </g>
    <g transform="translate(7 15)">
      <mask id="e" fill="#fff">
        <use xlink:href="#c"/>
      </mask>
      <path fill="url(#d)" d="M13.754 4.92c0 2.211 1.781 4.101 3.894 4.527v3.295c-2.067.303-3.992 1.535-4.895 3.317L9.6 15.047a4.5 4.5 0 0 0-.477-2.592 4.591 4.591 0 0 0-2.698-2.276 4.692 4.692 0 0 0-1.432-.225 4.62 4.62 0 0 0-4.408 3.163c-.79 2.4.545 4.988 2.975 5.768.466.149.949.225 1.435.225a4.628 4.628 0 0 0 4.028-2.323L12.18 17.8a6.158 6.158 0 0 0-.094 1.03c0 3.433 2.828 6.226 6.304 6.226 3.476 0 6.303-2.793 6.303-6.225 0-3.12-2.153-5.643-5.19-6.088V9.447c2.113-.426 3.522-2.316 3.522-4.526 0-2.524-2.08-4.577-4.635-4.577-2.556 0-4.635 2.053-4.635 4.577zm1.854 0c0-1.514 1.248-2.746 2.781-2.746 1.533 0 2.78 1.232 2.78 2.747 0 1.514-1.247 2.746-2.78 2.746-1.533 0-2.78-1.232-2.78-2.746zM4.133 17.144c-1.458-.468-2.259-2.02-1.784-3.46a2.77 2.77 0 0 1 2.644-1.898c.29 0 .58.045.86.135a2.76 2.76 0 0 1 1.618 1.365 2.7 2.7 0 0 1 .167 2.095 2.77 2.77 0 0 1-2.643 1.899 2.81 2.81 0 0 1-.862-.136zM14.31 18.83c0-2.22 1.83-4.028 4.08-4.028 2.248 0 4.078 1.807 4.078 4.028 0 2.22-1.83 4.028-4.079 4.028-2.249 0-4.079-1.807-4.079-4.028zm16.042-8.651c-2.129.683-3.416 2.753-3.174 4.869l-1.299.417.573 1.74 1.302-.417a4.63 4.63 0 0 0 4.03 2.322c.485 0 .968-.076 1.432-.225a4.587 4.587 0 0 0 2.698-2.276c.562-1.09.66-2.329.28-3.491a4.619 4.619 0 0 0-4.408-3.164 4.67 4.67 0 0 0-1.434.225zM29.14 15.38c-.474-1.44.327-2.993 1.785-3.461.28-.09.57-.135.861-.135 1.207 0 2.27.763 2.644 1.898.229.697.17 1.441-.168 2.095a2.75 2.75 0 0 1-1.619 1.365c-.28.09-.57.136-.86.136a2.77 2.77 0 0 1-2.643-1.898zM12.028 25.918a4.67 4.67 0 0 0-5.668 1.474 4.545 4.545 0 0 0 1.025 6.393 4.672 4.672 0 0 0 6.474-1.012 4.542 4.542 0 0 0-.33-5.781l.803-1.091-1.5-1.076-.804 1.093zm-3.553 6.386a2.727 2.727 0 0 1-.615-3.836 2.803 2.803 0 0 1 3.884-.607c1.24.89 1.517 2.61.616 3.836a2.804 2.804 0 0 1-3.885.607zm13.97-6.403l.803 1.092a4.54 4.54 0 0 0-.33 5.78 4.67 4.67 0 0 0 6.474 1.013 4.546 4.546 0 0 0 1.025-6.394 4.67 4.67 0 0 0-5.668-1.474l-.804-1.093-1.5 1.076zm1.973 5.796a2.728 2.728 0 0 1 .615-3.836 2.803 2.803 0 0 1 3.885.607 2.728 2.728 0 0 1-.615 3.837 2.802 2.802 0 0 1-3.885-.608z" mask="url(#e)"/>
    </g>
    <path fill="#000" d="M63.208 29.18c-1.193 0-2.2-.225-3.02-.677a8.039 8.039 0 0 1-2.134-1.691l2.243-1.772c.337.578.753 1.021 1.248 1.329a3.054 3.054 0 0 0 1.645.46c.651 0 1.149-.18 1.492-.542.344-.361.516-.771.516-1.23 0-.277-.079-.512-.236-.705a2.043 2.043 0 0 0-.614-.497 5.186 5.186 0 0 0-.878-.37 69.818 69.818 0 0 0-1.021-.326 29.484 29.484 0 0 1-1.339-.47 4.433 4.433 0 0 1-1.202-.679 3.344 3.344 0 0 1-.868-1.048c-.223-.416-.335-.938-.335-1.565 0-.53.109-1.025.326-1.483.217-.458.521-.859.913-1.202a4.286 4.286 0 0 1 1.393-.805 5.121 5.121 0 0 1 1.745-.29c.53 0 1.01.049 1.437.145a5.7 5.7 0 0 1 1.176.398c.356.169.681.37.976.606.296.235.576.491.841.769l-2.025 1.537c-.567-.844-1.362-1.266-2.387-1.266-.603 0-1.061.144-1.375.434-.313.29-.47.645-.47 1.067 0 .265.073.488.217.669.145.18.34.34.588.48.247.138.533.261.859.37l1.03.344c.447.144.896.31 1.348.497.452.187.862.428 1.23.723.367.296.666.657.895 1.085.229.428.344.962.344 1.6 0 .52-.103 1.025-.308 1.52a3.93 3.93 0 0 1-.886 1.31c-.386.38-.862.688-1.429.923-.566.235-1.211.353-1.935.353zm5.679-10.76h2.423v1.23a3.63 3.63 0 0 1 1.275-1.058c.512-.259 1.094-.388 1.745-.388.832 0 1.534.16 2.107.479a3.33 3.33 0 0 1 1.33 1.347c.36-.554.84-.997 1.437-1.329.597-.332 1.275-.497 2.034-.497 1.423 0 2.496.395 3.22 1.184.723.79 1.084 1.872 1.084 3.246V29h-2.495v-6.167c0-.771-.193-1.383-.579-1.835-.386-.452-.958-.678-1.718-.678-.663 0-1.218.229-1.664.687-.446.458-.669 1.151-.669 2.08V29H75.94v-6.24c0-.759-.187-1.355-.561-1.79-.374-.433-.928-.65-1.664-.65-.687 0-1.257.235-1.709.705-.452.47-.678 1.175-.678 2.116V29h-2.441V18.42zM91.8 29.218a5.07 5.07 0 0 1-1.89-.37 5.198 5.198 0 0 1-1.673-1.077 5.322 5.322 0 0 1-1.194-1.727c-.301-.681-.452-1.456-.452-2.324 0-.88.148-1.66.443-2.342a5.279 5.279 0 0 1 1.176-1.727 5.048 5.048 0 0 1 1.682-1.076 5.302 5.302 0 0 1 1.944-.37 4.66 4.66 0 0 1 1.935.398 4.05 4.05 0 0 1 1.465 1.085V18.42h2.44V29h-2.44v-1.374a4.01 4.01 0 0 1-1.483 1.166 4.534 4.534 0 0 1-1.953.425zm.397-2.242c.459 0 .88-.085 1.266-.254.386-.168.718-.404.995-.705a3.48 3.48 0 0 0 .66-1.049c.163-.398.244-.826.244-1.284a3.363 3.363 0 0 0-.904-2.306 2.992 2.992 0 0 0-.995-.696 3.124 3.124 0 0 0-1.266-.253c-.446 0-.865.084-1.256.253a3.244 3.244 0 0 0-1.022.687c-.29.29-.516.633-.678 1.031a3.358 3.358 0 0 0-.245 1.284c0 .458.082.89.245 1.293.162.404.388.754.678 1.05a3.17 3.17 0 0 0 2.278.949zm6.872-8.554h2.424v1.573c.494-1.049 1.398-1.573 2.712-1.573a3.778 3.778 0 0 1 1.863.452l-.922 2.315a2.7 2.7 0 0 0-.606-.299c-.223-.078-.51-.117-.86-.117-.71 0-1.25.202-1.618.605-.367.404-.551 1.064-.551 1.98V29h-2.442V18.42zm7.415 0h1.808v-1.61l2.46-1.682v3.292h2.152v2.188h-2.152v3.96c0 .458.024.83.072 1.113.048.283.148.5.299.65.15.151.367.25.65.299.284.048.66.072 1.13.072V29h-.343c-.82 0-1.504-.072-2.052-.217-.549-.145-.986-.389-1.311-.732-.326-.344-.558-.796-.697-1.357-.138-.56-.208-1.263-.208-2.107V20.61h-1.808v-2.19zm10.887-.272h-3.527V15.8h9.53v2.35h-3.544V29h-2.46V18.15zm7.18-2.531h2.44v4.069c.362-.459.811-.82 1.348-1.085.536-.266 1.142-.398 1.817-.398 1.314 0 2.342.398 3.084 1.193.741.796 1.112 1.905 1.112 3.328V29h-2.496v-6.004c0-.832-.199-1.486-.597-1.962-.397-.476-.994-.714-1.79-.714a2.45 2.45 0 0 0-.958.19c-.302.126-.564.31-.787.551a2.554 2.554 0 0 0-.524.904 3.71 3.71 0 0 0-.19 1.23V29h-2.46V15.618zm11.193 2.803h2.46V29h-2.46V18.42zm-.307-2.586c0-.459.139-.83.416-1.113.277-.283.65-.425 1.121-.425.482 0 .86.142 1.13.425.272.284.407.654.407 1.113 0 .458-.135.825-.407 1.103-.27.277-.648.416-1.13.416-.494 0-.874-.139-1.14-.416-.264-.278-.397-.645-.397-1.103zm4.177 2.586h2.424v1.302c.35-.458.792-.826 1.329-1.103.536-.278 1.148-.416 1.835-.416 1.315 0 2.342.398 3.084 1.193.741.796 1.112 1.905 1.112 3.328V29h-2.478v-6.022c0-.82-.198-1.468-.596-1.944-.398-.476-.995-.714-1.79-.714-.7 0-1.288.247-1.764.741s-.714 1.206-.714 2.134V29h-2.442V18.42zm19.513 9.168c-.385.507-.88.905-1.483 1.194-.602.29-1.26.434-1.97.434a5.07 5.07 0 0 1-1.89-.37 5.198 5.198 0 0 1-1.673-1.077 5.322 5.322 0 0 1-1.194-1.727c-.301-.681-.452-1.456-.452-2.324 0-.88.148-1.66.443-2.342a5.279 5.279 0 0 1 1.176-1.727 5.048 5.048 0 0 1 1.681-1.076 5.302 5.302 0 0 1 1.944-.37c.7 0 1.345.141 1.935.425.591.283 1.08.666 1.465 1.148v-1.356h2.442V28.73a6.13 6.13 0 0 1-.353 2.098 4.9 4.9 0 0 1-1.04 1.708 4.87 4.87 0 0 1-1.709 1.158c-.681.283-1.468.425-2.36.425a7.208 7.208 0 0 1-1.872-.226 5.773 5.773 0 0 1-1.51-.633 5.376 5.376 0 0 1-1.175-.959 6.053 6.053 0 0 1-.868-1.22l2.17-1.32c.386.71.82 1.241 1.302 1.591.482.35 1.145.524 1.99.524.458 0 .873-.084 1.247-.253.374-.169.69-.392.95-.669.259-.277.458-.603.596-.976.139-.374.208-.76.208-1.158v-1.23zm-3.056-.614c.458 0 .88-.085 1.266-.254.386-.168.717-.404.995-.705a3.48 3.48 0 0 0 .66-1.049c.162-.398.244-.826.244-1.284a3.363 3.363 0 0 0-.904-2.306 2.992 2.992 0 0 0-.995-.696 3.124 3.124 0 0 0-1.266-.253 3.14 3.14 0 0 0-1.257.253 3.244 3.244 0 0 0-1.022.687c-.289.29-.515.633-.678 1.031a3.358 3.358 0 0 0-.244 1.284c0 .458.082.89.244 1.293.163.404.39.754.678 1.05a3.17 3.17 0 0 0 2.28.949zm10.887 2.242c-1.17 0-2.14-.22-2.912-.66-.771-.44-1.368-1.076-1.79-1.908l2.26-1.085c.254.494.597.874 1.031 1.14.434.265.94.397 1.52.397.602 0 1.054-.126 1.356-.38.301-.253.452-.554.452-.904 0-.193-.07-.35-.208-.47a1.922 1.922 0 0 0-.543-.317 4.405 4.405 0 0 0-.786-.226c-.302-.06-.615-.126-.94-.198a16.315 16.315 0 0 1-1.348-.344 4.364 4.364 0 0 1-1.185-.552 2.774 2.774 0 0 1-.85-.904c-.217-.368-.325-.829-.325-1.383 0-.422.1-.83.298-1.221.2-.392.48-.738.841-1.04.362-.301.799-.54 1.311-.714a5.268 5.268 0 0 1 1.71-.262c1.06 0 1.943.196 2.649.587a4.446 4.446 0 0 1 1.672 1.6l-2.08 1.05a2.365 2.365 0 0 0-.903-.886c-.386-.217-.832-.326-1.339-.326-.578 0-1.006.115-1.284.344-.277.229-.416.494-.416.795 0 .35.205.6.615.75.41.152 1.013.311 1.809.48.434.084.87.196 1.31.335.44.138.842.325 1.203.56.362.235.654.537.878.904.223.368.334.83.334 1.384 0 .374-.084.762-.253 1.166a3.365 3.365 0 0 1-.787 1.122c-.355.343-.805.623-1.347.84-.543.218-1.194.326-1.953.326zM58.76 36.798h3.598c1.11 0 2.098.17 2.966.507.868.337 1.6.802 2.197 1.392a5.849 5.849 0 0 1 1.357 2.09c.307.8.46 1.672.46 2.612 0 .94-.168 1.815-.506 2.622a6.144 6.144 0 0 1-1.42 2.09 6.697 6.697 0 0 1-2.178 1.383c-.844.337-1.767.506-2.767.506H58.76V36.798zm2.459 2.28v8.643h.958c.724 0 1.375-.108 1.954-.325a4.206 4.206 0 0 0 1.473-.913c.404-.392.718-.85.94-1.375a4.321 4.321 0 0 0 .335-1.709c0-.639-.096-1.22-.289-1.745a3.616 3.616 0 0 0-.886-1.365c-.398-.386-.898-.684-1.501-.895-.603-.211-1.314-.317-2.134-.317h-.85zm14.45 11.139c-.833 0-1.592-.142-2.28-.425a5.266 5.266 0 0 1-1.762-1.166 5.273 5.273 0 0 1-1.14-1.746 5.649 5.649 0 0 1-.407-2.143c0-.771.142-1.494.425-2.17a5.414 5.414 0 0 1 1.167-1.754 5.563 5.563 0 0 1 1.745-1.175 5.375 5.375 0 0 1 2.16-.434 5.73 5.73 0 0 1 2.18.407c.67.27 1.245.65 1.727 1.139a5.266 5.266 0 0 1 1.13 1.727c.272.663.407 1.386.407 2.17v.922h-8.608c.169.748.537 1.35 1.103 1.809.567.458 1.284.687 2.152.687.688 0 1.284-.169 1.79-.506a3.13 3.13 0 0 0 1.14-1.357l2.007 1.158a5.477 5.477 0 0 1-1.926 2.07c-.825.525-1.83.787-3.01.787zm-.091-8.861c-.736 0-1.371.199-1.908.596a3.148 3.148 0 0 0-1.13 1.574h6.004c-.181-.711-.53-1.251-1.05-1.619-.518-.367-1.157-.551-1.916-.551zm5.986-1.935h2.55l2.73 7.45 2.677-7.45h2.514L88.056 50h-2.46l-4.032-10.58zm16.62 10.796c-.833 0-1.592-.142-2.28-.425a5.266 5.266 0 0 1-1.763-1.166 5.273 5.273 0 0 1-1.139-1.746 5.649 5.649 0 0 1-.407-2.143c0-.771.142-1.494.425-2.17a5.414 5.414 0 0 1 1.167-1.754 5.563 5.563 0 0 1 1.745-1.175 5.375 5.375 0 0 1 2.16-.434c.785 0 1.51.135 2.18.407.67.27 1.245.65 1.727 1.139a5.266 5.266 0 0 1 1.13 1.727c.272.663.407 1.386.407 2.17v.922h-8.608c.169.748.537 1.35 1.103 1.809.567.458 1.284.687 2.152.687.688 0 1.284-.169 1.79-.506a3.13 3.13 0 0 0 1.14-1.357l2.007 1.158a5.477 5.477 0 0 1-1.926 2.07c-.826.525-1.83.787-3.01.787zm-.091-8.861c-.736 0-1.372.199-1.908.596a3.148 3.148 0 0 0-1.13 1.574h6.004c-.181-.711-.53-1.251-1.05-1.619-.518-.367-1.157-.551-1.916-.551zm6.528-4.738h2.46V50h-2.46V36.618zm9.006 13.599a5.439 5.439 0 0 1-3.888-1.6 5.546 5.546 0 0 1-1.166-1.755 5.439 5.439 0 0 1-.425-2.143c0-.771.141-1.492.425-2.16a5.546 5.546 0 0 1 1.166-1.755 5.439 5.439 0 0 1 3.888-1.6c.76 0 1.471.141 2.134.425a5.47 5.47 0 0 1 3.346 5.09 5.47 5.47 0 0 1-3.346 5.073 5.373 5.373 0 0 1-2.134.425zm0-2.297a2.91 2.91 0 0 0 1.212-.253 3.102 3.102 0 0 0 1.628-1.709 3.32 3.32 0 0 0 .235-1.239 3.36 3.36 0 0 0-.235-1.256 3.15 3.15 0 0 0-.652-1.022 3.113 3.113 0 0 0-.976-.687 2.91 2.91 0 0 0-1.212-.254c-.434 0-.84.085-1.22.254-.38.168-.706.397-.977.687a3.34 3.34 0 0 0-.877 2.278 3.31 3.31 0 0 0 .877 2.26c.271.29.597.52.977.688.38.169.786.253 1.22.253zm12.424 2.297a5.087 5.087 0 0 1-1.99-.38 3.621 3.621 0 0 1-1.464-1.085v6.113h-2.423V39.42h2.423v1.41a4.04 4.04 0 0 1 1.456-1.184 4.402 4.402 0 0 1 1.98-.443c.663 0 1.308.123 1.935.37a4.972 4.972 0 0 1 1.664 1.076c.482.47.87 1.046 1.166 1.727.296.682.443 1.462.443 2.342 0 .868-.15 1.643-.452 2.324a5.395 5.395 0 0 1-1.184 1.727 5.095 5.095 0 0 1-1.664 1.076 5.07 5.07 0 0 1-1.89.371zm-.398-2.242c.446 0 .862-.085 1.248-.254a3.169 3.169 0 0 0 1.691-1.745c.163-.404.244-.835.244-1.293 0-.458-.081-.886-.244-1.284a3.099 3.099 0 0 0-.678-1.03 3.272 3.272 0 0 0-1.013-.688 3.079 3.079 0 0 0-1.248-.253c-.458 0-.88.084-1.266.253a3.002 3.002 0 0 0-.994.696 3.233 3.233 0 0 0-.651 1.04c-.157.398-.235.82-.235 1.266 0 .458.078.886.235 1.284.156.398.374.748.65 1.05.278.3.61.536.995.704.386.17.808.254 1.266.254zm11.846 2.242c-.832 0-1.592-.142-2.28-.425a5.266 5.266 0 0 1-1.762-1.166 5.273 5.273 0 0 1-1.14-1.746 5.649 5.649 0 0 1-.407-2.143c0-.771.142-1.494.425-2.17a5.414 5.414 0 0 1 1.167-1.754 5.563 5.563 0 0 1 1.745-1.175 5.38 5.38 0 0 1 2.161-.434c.784 0 1.51.135 2.18.407a5.05 5.05 0 0 1 1.726 1.139 5.266 5.266 0 0 1 1.13 1.727c.272.663.407 1.386.407 2.17v.922h-8.608c.17.748.537 1.35 1.104 1.809.566.458 1.283.687 2.152.687.687 0 1.284-.169 1.79-.506a3.13 3.13 0 0 0 1.14-1.357l2.007 1.158a5.477 5.477 0 0 1-1.926 2.07c-.826.525-1.83.787-3.011.787zm-.09-8.861c-.736 0-1.372.199-1.909.596a3.148 3.148 0 0 0-1.13 1.574h6.004c-.18-.711-.53-1.251-1.049-1.619-.518-.367-1.157-.551-1.917-.551zm6.528-1.935h2.423v1.573c.494-1.049 1.398-1.573 2.712-1.573a3.778 3.778 0 0 1 1.863.452l-.922 2.315a2.7 2.7 0 0 0-.606-.299c-.223-.078-.51-.117-.859-.117-.711 0-1.25.202-1.618.605-.368.404-.552 1.064-.552 1.98V50h-2.441V39.42zm11.772 10.796c-1.169 0-2.14-.22-2.911-.66-.772-.44-1.369-1.076-1.79-1.908l2.26-1.085a2.8 2.8 0 0 0 1.03 1.14c.435.265.941.397 1.52.397.603 0 1.055-.126 1.356-.38.302-.253.452-.554.452-.904a.591.591 0 0 0-.208-.47 1.922 1.922 0 0 0-.542-.317 4.405 4.405 0 0 0-.787-.226c-.301-.06-.615-.126-.94-.198a16.315 16.315 0 0 1-1.347-.344 4.364 4.364 0 0 1-1.185-.552 2.774 2.774 0 0 1-.85-.904c-.217-.368-.325-.829-.325-1.383 0-.422.099-.83.298-1.221a3.31 3.31 0 0 1 .84-1.04c.363-.301.8-.54 1.312-.714a5.268 5.268 0 0 1 1.709-.262c1.06 0 1.944.196 2.65.587a4.446 4.446 0 0 1 1.672 1.6l-2.08 1.05a2.365 2.365 0 0 0-.904-.886c-.386-.217-.832-.326-1.338-.326-.579 0-1.007.115-1.284.344-.277.229-.416.494-.416.795 0 .35.205.6.615.75.41.152 1.013.311 1.808.48.434.084.871.196 1.311.335.44.138.841.325 1.203.56.362.235.654.537.877.904.223.368.335.83.335 1.384 0 .374-.085.762-.254 1.166a3.365 3.365 0 0 1-.786 1.122c-.356.343-.805.623-1.347.84-.543.218-1.194.326-1.954.326z"/>
  </g>
</svg>
